<svg width="147" height="60" viewBox="0 0 147 60" fill="none" xmlns="http://www.w3.org/2000/svg">
<g clip-path="url(#clip0_3090_22333)">
<mask id="mask0_3090_22333" style="mask-type:luminance" maskUnits="userSpaceOnUse" x="0" y="0" width="147" height="60">
<path d="M146.818 0H0V60H146.818V0Z" fill="white"/>
</mask>
<g mask="url(#mask0_3090_22333)">
<g filter="url(#filter0_d_3090_22333)">
<mask id="mask1_3090_22333" style="mask-type:luminance" maskUnits="userSpaceOnUse" x="0" y="0" width="147" height="60">
<path d="M145 0H1.81818C0.814027 0 0 0.814027 0 1.81818V58.1818C0 59.1859 0.814027 60 1.81818 60H145C146.004 60 146.818 59.1859 146.818 58.1818V1.81818C146.818 0.814027 146.004 0 145 0Z" fill="white"/>
</mask>
<g mask="url(#mask1_3090_22333)">
<path d="M145 0H1.81818C0.814027 0 0 0.814027 0 1.81818V58.1818C0 59.1859 0.814027 60 1.81818 60H145C146.004 60 146.818 59.1859 146.818 58.1818V1.81818C146.818 0.814027 146.004 0 145 0Z" fill="white"/>
<path d="M16.6138 19.5123C16.7499 19.0935 17.3424 19.0935 17.4785 19.5124L18.3728 22.265C18.4337 22.4522 18.6082 22.579 18.8051 22.579H21.6994C22.1397 22.579 22.3228 23.1425 21.9666 23.4013L19.6251 25.1025C19.4657 25.2183 19.3991 25.4234 19.4599 25.6107L20.3543 28.3633C20.4904 28.7821 20.0111 29.1303 19.6548 28.8715L17.3133 27.1703C17.154 27.0545 16.9383 27.0545 16.779 27.1703L14.4375 28.8715C14.0812 29.1303 13.6019 28.7821 13.738 28.3633L14.6324 25.6107C14.6932 25.4234 14.6266 25.2183 14.4672 25.1025L12.1257 23.4013C11.7695 23.1425 11.9526 22.579 12.3929 22.579H15.2872C15.4841 22.579 15.6586 22.4522 15.7195 22.265L16.6138 19.5123Z" fill="#FF492C"/>
<path d="M29.3404 19.5123C29.4765 19.0935 30.0689 19.0935 30.205 19.5124L31.0994 22.265C31.1603 22.4522 31.3348 22.579 31.5317 22.579H34.4259C34.8663 22.579 35.0493 23.1425 34.6931 23.4013L32.3516 25.1025C32.1923 25.2183 32.1256 25.4234 32.1865 25.6107L33.0808 28.3633C33.2169 28.7821 32.7376 29.1303 32.3814 28.8715L30.0399 27.1703C29.8806 27.0545 29.6648 27.0545 29.5055 27.1703L27.164 28.8715C26.8078 29.1303 26.3285 28.7821 26.4646 28.3633L27.3589 25.6107C27.4198 25.4234 27.3531 25.2183 27.1938 25.1025L24.8523 23.4013C24.4961 23.1425 24.6792 22.579 25.1195 22.579H28.0138C28.2107 22.579 28.3852 22.4522 28.446 22.265L29.3404 19.5123Z" fill="#FF492C"/>
<path d="M42.0691 19.5123C42.205 19.0935 42.7977 19.0935 42.9336 19.5124L43.8282 22.265C43.8891 22.4522 44.0636 22.579 44.2604 22.579H47.1545C47.595 22.579 47.7781 23.1425 47.4218 23.4013L45.0804 25.1025C44.9209 25.2183 44.8541 25.4234 44.915 25.6107L45.8095 28.3633C45.9454 28.7821 45.4663 29.1303 45.11 28.8715L42.7686 27.1703C42.6091 27.0545 42.3936 27.0545 42.2341 27.1703L39.8927 28.8715C39.5363 29.1303 39.0572 28.7821 39.1932 28.3633L40.0877 25.6107C40.1486 25.4234 40.0818 25.2183 39.9222 25.1025L37.5809 23.4013C37.2245 23.1425 37.4077 22.579 37.8482 22.579H40.7422C40.9391 22.579 41.1136 22.4522 41.1745 22.265L42.0691 19.5123Z" fill="#FF492C"/>
<path d="M54.7956 19.5123C54.9315 19.0935 55.5243 19.0935 55.6602 19.5124L56.5547 22.265C56.6156 22.4522 56.7902 22.579 56.987 22.579H59.8811C60.3215 22.579 60.5047 23.1425 60.1484 23.4013L57.807 25.1025C57.6474 25.2183 57.5806 25.4234 57.6415 25.6107L58.5361 28.3633C58.672 28.7821 58.1929 29.1303 57.8365 28.8715L55.4952 27.1703C55.3356 27.0545 55.1202 27.0545 54.9606 27.1703L52.6193 28.8715C52.2629 29.1303 51.7838 28.7821 51.9197 28.3633L52.8143 25.6107C52.8752 25.4234 52.8084 25.2183 52.6488 25.1025L50.3074 23.4013C49.9511 23.1425 50.1343 22.579 50.5747 22.579H53.4688C53.6656 22.579 53.8402 22.4522 53.9011 22.265L54.7956 19.5123Z" fill="#FF492C"/>
<path d="M68.278 19.5471L69.1725 22.2997C69.2484 22.5338 69.4666 22.6923 69.713 22.6923H72.6071C72.9375 22.6923 73.0748 23.1149 72.8075 23.309L70.4661 25.0102C70.2671 25.1549 70.1834 25.4114 70.2598 25.6455L71.1539 28.398C71.2561 28.7121 70.8966 28.9733 70.6293 28.7792L68.288 27.078C68.0889 26.9333 67.8189 26.9333 67.6198 27.078L65.2784 28.7792C65.0111 28.9733 64.6516 28.7121 64.7539 28.398L65.648 25.6455C65.7243 25.4114 65.6407 25.1549 65.4416 25.0102L63.1002 23.309C62.833 23.1149 62.9702 22.6923 63.3007 22.6923H66.1948C66.4411 22.6923 66.6593 22.5338 66.7352 22.2997L67.6298 19.5471C67.7316 19.233 68.1761 19.233 68.278 19.5471Z" stroke="#FF3722" stroke-width="0.5"/>
<mask id="mask2_3090_22333" style="mask-type:alpha" maskUnits="userSpaceOnUse" x="61" y="18" width="7" height="13">
<path d="M67.9554 18.1816H61.5918V30.9089H67.9554V18.1816Z" fill="#D9D9D9"/>
</mask>
<g mask="url(#mask2_3090_22333)">
<path d="M67.5241 19.5123C67.6601 19.0935 68.2528 19.0935 68.3887 19.5124L69.2832 22.265C69.3441 22.4522 69.5187 22.579 69.7155 22.579H72.6096C73.0501 22.579 73.2332 23.1425 72.8769 23.4013L70.5355 25.1025C70.376 25.2183 70.3091 25.4234 70.3701 25.6107L71.2646 28.3633C71.4005 28.7821 70.9214 29.1303 70.5651 28.8715L68.2237 27.1703C68.0641 27.0545 67.8487 27.0545 67.6891 27.1703L65.3478 28.8715C64.9914 29.1303 64.5123 28.7821 64.6482 28.3633L65.5428 25.6107C65.6037 25.4234 65.5369 25.2183 65.3773 25.1025L63.036 23.4013C62.6796 23.1425 62.8628 22.579 63.3032 22.579H66.1973C66.3941 22.579 66.5687 22.4522 66.6296 22.265L67.5241 19.5123Z" fill="#FF492C"/>
</g>
<path d="M11.2296 33.898C11.6611 33.898 12.0151 33.9539 12.2914 34.0653C12.5726 34.1721 12.7811 34.3344 12.9169 34.5526C13.0526 34.7708 13.1205 35.0448 13.1205 35.3744C13.1205 35.6507 13.0696 35.8812 12.9678 36.0653C12.866 36.2494 12.7351 36.3976 12.5751 36.5089C12.4199 36.6158 12.2551 36.7003 12.0805 36.7635L13.506 39.0908H12.7423L11.4841 36.9453H10.4514V39.0908H9.79688V33.898H11.2296ZM11.1932 34.4653H10.4514V36.3926H11.2296C11.5108 36.3926 11.7411 36.3562 11.9205 36.2835C12.0999 36.2057 12.2308 36.0944 12.3132 35.9489C12.4005 35.8035 12.4441 35.6217 12.4441 35.4035C12.4441 35.1758 12.3981 34.994 12.306 34.8581C12.2187 34.7222 12.0829 34.623 11.8987 34.5598C11.7145 34.4967 11.4793 34.4653 11.1932 34.4653ZM15.5937 35.1198C15.9283 35.1198 16.2144 35.1926 16.4519 35.3381C16.6944 35.4835 16.8786 35.6894 17.0046 35.9562C17.1356 36.218 17.201 36.5258 17.201 36.8798V37.2653H14.5319C14.5416 37.7067 14.6531 38.0435 14.8665 38.2762C15.0846 38.5039 15.3877 38.618 15.7756 38.618C16.0228 38.618 16.241 38.5962 16.4301 38.5526C16.6241 38.5039 16.8228 38.4362 17.0265 38.3489V38.9089C16.8277 38.9962 16.6313 39.0594 16.4374 39.098C16.2435 39.1417 16.0131 39.1635 15.7465 39.1635C15.378 39.1635 15.0507 39.0885 14.7646 38.938C14.4835 38.7876 14.2628 38.5648 14.1028 38.2689C13.9477 37.9685 13.8701 37.6021 13.8701 37.1708C13.8701 36.7439 13.9404 36.378 14.081 36.0726C14.2265 35.7671 14.4277 35.5321 14.6846 35.3671C14.9465 35.2021 15.2495 35.1198 15.5937 35.1198ZM15.5865 35.6435C15.281 35.6435 15.0386 35.743 14.8592 35.9417C14.6846 36.1358 14.5804 36.4071 14.5465 36.7562H16.5319C16.5319 36.533 16.498 36.3394 16.4301 36.1744C16.3622 36.0094 16.258 35.8812 16.1174 35.7889C15.9816 35.6921 15.8046 35.6435 15.5865 35.6435ZM19.5243 35.1271C19.9995 35.1271 20.351 35.2312 20.5789 35.4398C20.8067 35.6485 20.9207 35.9803 20.9207 36.4362V39.0908H20.4552L20.3316 38.538H20.3025C20.191 38.6785 20.0746 38.7976 19.9534 38.8944C19.8371 38.9867 19.7013 39.0544 19.5461 39.098C19.3958 39.1417 19.2116 39.1635 18.9934 39.1635C18.7607 39.1635 18.5498 39.1221 18.3607 39.0398C18.1764 38.9576 18.031 38.8312 17.9243 38.6617C17.8176 38.4871 17.7643 38.2689 17.7643 38.0071C17.7643 37.6194 17.9171 37.3213 18.2225 37.1126C18.528 36.8994 18.9982 36.783 19.6334 36.7635L20.2952 36.7417V36.5089C20.2952 36.1839 20.2249 35.9585 20.0843 35.8326C19.9437 35.7067 19.7449 35.6435 19.488 35.6435C19.2843 35.6435 19.0904 35.6748 18.9061 35.738C18.7219 35.7962 18.5498 35.8639 18.3898 35.9417L18.1934 35.4617C18.3631 35.3694 18.5643 35.2921 18.7971 35.2289C19.0298 35.1612 19.2722 35.1271 19.5243 35.1271ZM19.7134 37.2072C19.2286 37.2267 18.8916 37.3039 18.7025 37.4398C18.5182 37.5757 18.4261 37.7672 18.4261 38.0144C18.4261 38.2326 18.4916 38.3926 18.6225 38.4944C18.7582 38.5962 18.9304 38.6471 19.1389 38.6471C19.4686 38.6471 19.7425 38.5576 19.9607 38.378C20.1789 38.1939 20.288 37.9126 20.288 37.5344V37.1853L19.7134 37.2072ZM23.361 39.1635C22.8762 39.1635 22.4883 38.9962 22.1974 38.6617C21.9065 38.3221 21.761 37.818 21.761 37.1489C21.761 36.4798 21.9065 35.9758 22.1974 35.6362C22.4931 35.2921 22.8835 35.1198 23.3683 35.1198C23.5719 35.1198 23.7489 35.1467 23.8992 35.1998C24.0495 35.2485 24.1804 35.3162 24.2919 35.4035C24.4035 35.4908 24.498 35.5876 24.5756 35.6944H24.6192C24.6144 35.6312 24.6046 35.5394 24.5901 35.418C24.5804 35.2921 24.5756 35.1926 24.5756 35.1198V33.5635H25.2156V39.0908H24.6992L24.6046 38.5671H24.5756C24.498 38.6785 24.4035 38.7803 24.2919 38.8726C24.1804 38.9598 24.0471 39.0303 23.8919 39.0835C23.7416 39.1367 23.5646 39.1635 23.361 39.1635ZM23.4628 38.6326C23.875 38.6326 24.1635 38.5212 24.3283 38.298C24.498 38.0703 24.5828 37.7285 24.5828 37.2726V37.1562C24.5828 36.6712 24.5028 36.3003 24.3428 36.0435C24.1828 35.7817 23.8871 35.6508 23.4556 35.6508C23.1113 35.6508 22.8519 35.7889 22.6774 36.0653C22.5077 36.3367 22.4228 36.703 22.4228 37.1635C22.4228 37.6289 22.5077 37.9903 22.6774 38.2471C22.8519 38.5039 23.1137 38.6326 23.4628 38.6326ZM31.441 37.1344C31.441 37.4594 31.3974 37.7476 31.3101 37.9998C31.2277 38.2471 31.1065 38.458 30.9465 38.6326C30.7913 38.8071 30.5998 38.9403 30.3719 39.0326C30.1489 39.1198 29.8992 39.1635 29.6228 39.1635C29.3659 39.1635 29.1283 39.1198 28.9101 39.0326C28.6919 38.9403 28.5028 38.8071 28.3428 38.6326C28.1828 38.458 28.0568 38.2471 27.9646 37.9998C27.8774 37.7476 27.8337 37.4594 27.8337 37.1344C27.8337 36.703 27.9065 36.3394 28.0519 36.0435C28.1974 35.743 28.4059 35.5148 28.6774 35.3598C28.9489 35.1998 29.2713 35.1198 29.6446 35.1198C29.9986 35.1198 30.3089 35.1998 30.5756 35.3598C30.8471 35.5148 31.058 35.743 31.2083 36.0435C31.3635 36.3394 31.441 36.703 31.441 37.1344ZM28.4956 37.1344C28.4956 37.4398 28.5344 37.7067 28.6119 37.9344C28.6944 38.1576 28.8204 38.3294 28.9901 38.4508C29.1598 38.5722 29.3756 38.6326 29.6374 38.6326C29.8992 38.6326 30.115 38.5722 30.2846 38.4508C30.4544 38.3294 30.578 38.1576 30.6556 37.9344C30.738 37.7067 30.7792 37.4398 30.7792 37.1344C30.7792 36.8239 30.738 36.5599 30.6556 36.3417C30.5731 36.1235 30.4471 35.9562 30.2774 35.8398C30.1126 35.7185 29.8968 35.658 29.6301 35.658C29.2326 35.658 28.9441 35.7889 28.7646 36.0507C28.5853 36.3126 28.4956 36.6739 28.4956 37.1344ZM35.5681 35.1926V39.0908H35.0444L34.9499 38.5744H34.9208C34.8384 38.7103 34.7317 38.8217 34.6008 38.9089C34.4699 38.9962 34.3269 39.0594 34.1717 39.098C34.0166 39.1417 33.8541 39.1635 33.6844 39.1635C33.3741 39.1635 33.1123 39.1148 32.899 39.018C32.6905 38.9162 32.5329 38.7612 32.4262 38.5526C32.3196 38.3439 32.2662 38.0748 32.2662 37.7453V35.1926H32.9135V37.7017C32.9135 38.0121 32.9838 38.2449 33.1244 38.3999C33.2651 38.5549 33.4832 38.6326 33.779 38.6326C34.0699 38.6326 34.2978 38.5794 34.4626 38.4726C34.6323 38.3612 34.7511 38.2012 34.819 37.9926C34.8917 37.7794 34.9281 37.5221 34.9281 37.2217V35.1926H35.5681ZM38.4782 35.1198C38.551 35.1198 38.6287 35.1248 38.711 35.1344C38.7982 35.1394 38.8737 35.1489 38.9364 35.1635L38.8564 35.7526C38.7937 35.738 38.7232 35.7257 38.6455 35.7162C38.5728 35.7067 38.5028 35.7017 38.4346 35.7017C38.2846 35.7017 38.1414 35.733 38.0055 35.7962C37.8701 35.8594 37.7487 35.9489 37.6419 36.0653C37.5355 36.1767 37.4505 36.3126 37.3873 36.4726C37.3291 36.6326 37.3001 36.8122 37.3001 37.0108V39.0908H36.6601V35.1926H37.1837L37.2564 35.9053H37.2855C37.3682 35.7598 37.4673 35.6289 37.5837 35.5126C37.7001 35.3912 37.8337 35.2967 37.9837 35.2289C38.1341 35.1562 38.2991 35.1198 38.4782 35.1198ZM43.081 35.1198C43.1537 35.1198 43.2314 35.1248 43.3137 35.1344C43.401 35.1394 43.476 35.1489 43.5391 35.1635L43.4591 35.7526C43.396 35.738 43.326 35.7257 43.2482 35.7162C43.1755 35.7067 43.1051 35.7017 43.0373 35.7017C42.8869 35.7017 42.7441 35.733 42.6082 35.7962C42.4723 35.8594 42.3514 35.9489 42.2446 36.0653C42.1378 36.1767 42.0532 36.3126 41.9901 36.4726C41.9319 36.6326 41.9028 36.8122 41.9028 37.0108V39.0908H41.2628V35.1926H41.7864L41.8591 35.9053H41.8882C41.9705 35.7598 42.0701 35.6289 42.1864 35.5126C42.3028 35.3912 42.436 35.2967 42.5864 35.2289C42.7369 35.1562 42.9014 35.1198 43.081 35.1198ZM45.4852 35.1198C45.8197 35.1198 46.1056 35.1926 46.3434 35.3381C46.5856 35.4835 46.7697 35.6894 46.8961 35.9562C47.027 36.218 47.0925 36.5258 47.0925 36.8798V37.2653H44.4232C44.4328 37.7067 44.5441 38.0435 44.7578 38.2762C44.976 38.5039 45.2787 38.618 45.667 38.618C45.9143 38.618 46.1325 38.5962 46.3216 38.5526C46.5152 38.5039 46.7143 38.4362 46.9179 38.3489V38.9089C46.7188 38.9962 46.5225 39.0594 46.3288 39.098C46.1347 39.1417 45.9043 39.1635 45.6379 39.1635C45.2691 39.1635 44.9419 39.0885 44.656 38.938C44.3746 38.7876 44.1541 38.5648 43.9941 38.2689C43.8387 37.9685 43.7614 37.6021 43.7614 37.1708C43.7614 36.7439 43.8314 36.378 43.9723 36.0726C44.1178 35.7671 44.3187 35.5321 44.576 35.3671C44.8378 35.2021 45.1405 35.1198 45.4852 35.1198ZM45.4779 35.6435C45.1723 35.6435 44.9296 35.743 44.7505 35.9417C44.576 36.1358 44.4714 36.4071 44.4378 36.7562H46.4234C46.4234 36.533 46.3893 36.3394 46.3216 36.1744C46.2534 36.0094 46.1493 35.8812 46.0088 35.7889C45.8729 35.6921 45.6961 35.6435 45.4779 35.6435ZM48.6556 39.0908L47.1793 35.1926H47.8629L48.692 37.4908C48.7306 37.5976 48.772 37.7162 48.8156 37.8471C48.8593 37.978 48.8979 38.1039 48.932 38.2253C48.9656 38.3417 48.9902 38.4412 49.0047 38.5235H49.0338C49.0529 38.4412 49.0797 38.3394 49.1138 38.218C49.1525 38.0967 49.1938 37.9708 49.2375 37.8398C49.2856 37.7089 49.327 37.5926 49.3611 37.4908L50.1902 35.1926H50.8738L49.3902 39.0908H48.6556ZM51.9852 35.1926V39.0908H51.3452V35.1926H51.9852ZM51.6725 33.7308C51.7693 33.7308 51.8543 33.7648 51.927 33.8326C52.0043 33.8958 52.0434 33.9976 52.0434 34.138C52.0434 34.2739 52.0043 34.3758 51.927 34.4435C51.8543 34.5112 51.7693 34.5453 51.6725 34.5453C51.5656 34.5453 51.4761 34.5112 51.4034 34.4435C51.3306 34.3758 51.2943 34.2739 51.2943 34.138C51.2943 33.9976 51.3306 33.8958 51.4034 33.8326C51.4761 33.7648 51.5656 33.7308 51.6725 33.7308ZM54.5797 35.1198C54.9143 35.1198 55.2006 35.1926 55.4379 35.3381C55.6806 35.4835 55.8647 35.6894 55.9906 35.9562C56.1216 36.218 56.187 36.5258 56.187 36.8798V37.2653H53.5179C53.5279 37.7067 53.6393 38.0435 53.8525 38.2762C54.0706 38.5039 54.3738 38.618 54.7616 38.618C55.0088 38.618 55.227 38.5962 55.4161 38.5526C55.6102 38.5039 55.8088 38.4362 56.0125 38.3489V38.9089C55.8138 38.9962 55.6175 39.0594 55.4234 39.098C55.2297 39.1417 54.9993 39.1635 54.7325 39.1635C54.3643 39.1635 54.037 39.0885 53.7506 38.938C53.4697 38.7876 53.2488 38.5648 53.0888 38.2689C52.9338 37.9685 52.8561 37.6021 52.8561 37.1708C52.8561 36.7439 52.9266 36.378 53.067 36.0726C53.2125 35.7671 53.4138 35.5321 53.6706 35.3671C53.9325 35.2021 54.2356 35.1198 54.5797 35.1198ZM54.5725 35.6435C54.267 35.6435 54.0247 35.743 53.8452 35.9417C53.6706 36.1358 53.5666 36.4071 53.5325 36.7562H55.5179C55.5179 36.533 55.4843 36.3394 55.4161 36.1744C55.3484 36.0094 55.2443 35.8812 55.1034 35.7889C54.9679 35.6921 54.7906 35.6435 54.5725 35.6435ZM59.4084 36.8871C59.3793 36.7853 59.3502 36.6857 59.3211 36.5889C59.292 36.4871 59.2656 36.3926 59.2411 36.3053C59.222 36.213 59.2025 36.1285 59.1829 36.0507C59.1638 35.973 59.1493 35.9076 59.1393 35.8544H59.1102C59.1006 35.9076 59.0861 35.973 59.0666 36.0507C59.052 36.1285 59.0329 36.213 59.0084 36.3053C58.9893 36.3976 58.9647 36.4944 58.9356 36.5962C58.9116 36.693 58.8825 36.7926 58.8484 36.8944L58.1502 39.0835H57.4229L56.3538 35.1853H57.0156L57.5538 37.2653C57.5929 37.4058 57.6293 37.5489 57.6629 37.6944C57.697 37.8348 57.7261 37.9707 57.7502 38.1017C57.7793 38.2276 57.7988 38.3367 57.8084 38.4289H57.8375C57.852 38.3708 57.8693 38.2981 57.8884 38.2108C57.9079 38.1235 57.9275 38.0312 57.9466 37.9344C57.9711 37.8376 57.9952 37.7403 58.0193 37.6435C58.0484 37.5467 58.0752 37.4594 58.0993 37.3817L58.7902 35.1853H59.4884L60.1575 37.3817C60.1916 37.493 60.2256 37.6121 60.2593 37.738C60.2984 37.8639 60.332 37.9876 60.3611 38.1089C60.3902 38.2253 60.4097 38.3294 60.4193 38.4217H60.4484C60.4584 38.3394 60.4752 38.2376 60.4993 38.1163C60.5284 37.9903 60.5602 37.8544 60.5938 37.7089C60.6329 37.5585 60.6716 37.4108 60.7102 37.2653L61.2556 35.1853H61.9102L60.8265 39.0835H60.0775L59.4084 36.8871ZM65.002 38.0144C65.002 38.2667 64.9393 38.4776 64.8129 38.6471C64.687 38.8167 64.5075 38.9453 64.2747 39.0326C64.042 39.1198 63.7656 39.1635 63.4456 39.1635C63.1743 39.1635 62.9393 39.1417 62.7402 39.098C62.5466 39.0544 62.3743 38.9939 62.2238 38.9162V38.3344C62.3793 38.4121 62.5656 38.4848 62.7838 38.5526C63.007 38.6158 63.2325 38.6471 63.4602 38.6471C63.7852 38.6471 64.0202 38.5962 64.1656 38.4944C64.3111 38.3876 64.3838 38.2471 64.3838 38.0726C64.3838 37.9758 64.3575 37.8885 64.3038 37.8108C64.2506 37.733 64.1538 37.6557 64.0129 37.578C63.8775 37.5003 63.6811 37.413 63.4238 37.3162C63.172 37.2194 62.9561 37.1221 62.7766 37.0253C62.5975 36.9285 62.4593 36.8122 62.362 36.6762C62.2652 36.5403 62.2166 36.3658 62.2166 36.1526C62.2166 35.8231 62.3502 35.5685 62.6166 35.389C62.8884 35.2094 63.242 35.1198 63.6784 35.1198C63.9161 35.1198 64.1366 35.144 64.3402 35.1926C64.5488 35.2362 64.7429 35.2994 64.922 35.3817L64.7038 35.8908C64.5975 35.8421 64.4834 35.8012 64.362 35.7672C64.2456 35.7285 64.127 35.6994 64.0056 35.6798C63.8847 35.6557 63.7611 35.6435 63.6347 35.6435C63.3729 35.6435 63.172 35.6871 63.0311 35.7744C62.8956 35.8567 62.8275 35.9708 62.8275 36.1162C62.8275 36.223 62.8593 36.3149 62.922 36.3926C62.9852 36.4653 63.0893 36.538 63.2347 36.6108C63.3852 36.6785 63.5838 36.7612 63.8311 36.858C64.0784 36.9503 64.2893 37.0448 64.4638 37.1417C64.6384 37.2385 64.772 37.3576 64.8638 37.498C64.9561 37.6339 65.002 37.8058 65.002 38.0144ZM70.9316 37.1344C70.9316 37.4594 70.8879 37.7476 70.8006 37.9998C70.7184 38.2471 70.597 38.458 70.437 38.6326C70.282 38.8071 70.0902 38.9403 69.8625 39.0326C69.6393 39.1198 69.3897 39.1635 69.1134 39.1635C68.8566 39.1635 68.6188 39.1198 68.4006 39.0326C68.1825 38.9403 67.9934 38.8071 67.8334 38.6326C67.6734 38.458 67.5475 38.2471 67.4552 37.9998C67.3679 37.7476 67.3243 37.4594 67.3243 37.1344C67.3243 36.703 67.397 36.3394 67.5425 36.0435C67.6879 35.743 67.8965 35.5148 68.1679 35.3598C68.4393 35.1998 68.762 35.1198 69.1352 35.1198C69.4893 35.1198 69.7993 35.1998 70.0661 35.3598C70.3375 35.5148 70.5484 35.743 70.6988 36.0435C70.8538 36.3394 70.9316 36.703 70.9316 37.1344ZM67.9861 37.1344C67.9861 37.4398 68.0247 37.7067 68.1025 37.9344C68.1847 38.1576 68.3111 38.3294 68.4806 38.4508C68.6502 38.5722 68.8661 38.6326 69.1279 38.6326C69.3897 38.6326 69.6056 38.5722 69.7752 38.4508C69.9447 38.3294 70.0684 38.1576 70.1461 37.9344C70.2284 37.7067 70.2697 37.4398 70.2697 37.1344C70.2697 36.8239 70.2284 36.5599 70.1461 36.3417C70.0638 36.1235 69.9375 35.9562 69.7679 35.8398C69.6029 35.7185 69.3875 35.658 69.1206 35.658C68.7229 35.658 68.4347 35.7889 68.2552 36.0507C68.0756 36.3126 67.9861 36.6739 67.9861 37.1344ZM73.6766 35.1198C74.142 35.1198 74.4938 35.2339 74.7311 35.4617C74.9688 35.6848 75.0875 36.0485 75.0875 36.5526V39.0908H74.4547V36.5962C74.4547 36.2812 74.3847 36.0458 74.2438 35.8908C74.1034 35.7358 73.8829 35.658 73.582 35.658C73.1506 35.658 72.8525 35.7794 72.6875 36.0217C72.5229 36.2639 72.4402 36.613 72.4402 37.0689V39.0908H71.8002V35.1926H72.3166L72.4111 35.7235H72.4475C72.5347 35.5876 72.6416 35.4763 72.7675 35.389C72.8984 35.2967 73.0416 35.2289 73.1966 35.1853C73.352 35.1417 73.512 35.1198 73.6766 35.1198Z" fill="#707070"/>
<path d="M85 0H146.818V60H85L100.716 31.7277L85 0Z" fill="#FF3A22"/>
<mask id="mask3_3090_22333" style="mask-type:luminance" maskUnits="userSpaceOnUse" x="107" y="16" width="27" height="27">
<path d="M133.301 16.3633H107.727V42.6559H133.301V16.3633Z" fill="white"/>
</mask>
<g mask="url(#mask3_3090_22333)">
<path d="M125.748 35.096C126.715 36.7742 127.671 38.4338 128.627 40.0915C124.396 43.331 117.811 43.7228 112.937 39.9915C107.328 35.6947 106.406 28.3627 109.409 23.0848C112.863 17.0141 119.326 15.6715 123.488 16.656C123.375 16.9005 120.883 22.0712 120.883 22.0712C120.883 22.0712 120.686 22.0842 120.574 22.0863C119.344 22.1385 118.428 22.4247 117.446 22.9323C116.369 23.4945 115.446 24.312 114.757 25.3133C114.069 26.3147 113.636 27.4694 113.497 28.6766C113.352 29.9008 113.521 31.1419 113.989 32.2825C114.384 33.2468 114.944 34.1033 115.694 34.8265C116.844 35.9365 118.214 36.6242 119.801 36.8515C121.304 37.0674 122.749 36.8538 124.103 36.1733C124.611 35.9183 125.044 35.6369 125.549 35.2506C125.613 35.2088 125.671 35.156 125.748 35.096Z" fill="white"/>
<path d="M125.758 20.376C125.513 20.1344 125.285 19.9115 125.059 19.6871C124.923 19.5534 124.793 19.4142 124.655 19.2837C124.605 19.2366 124.547 19.1723 124.547 19.1723C124.547 19.1723 124.594 19.0723 124.614 19.0313C124.879 18.4995 125.294 18.1108 125.787 17.8016C126.331 17.4571 126.966 17.2818 127.611 17.2979C128.435 17.3141 129.201 17.5194 129.848 18.0724C130.326 18.4805 130.571 18.9982 130.614 19.6163C130.686 20.659 130.254 21.4576 129.397 22.0149C128.894 22.3428 128.351 22.5963 127.807 22.8965C127.507 23.0623 127.25 23.2078 126.956 23.5078C126.698 23.8087 126.686 24.0923 126.686 24.0923L130.586 24.0873V25.8243H124.566C124.566 25.8243 124.566 25.7057 124.566 25.6564C124.543 24.8028 124.642 23.9996 125.033 23.2244C125.393 22.5132 125.951 21.9926 126.623 21.5917C127.14 21.2828 127.684 21.02 128.202 20.7126C128.522 20.5231 128.748 20.2452 128.746 19.8421C128.746 19.4962 128.494 19.1888 128.135 19.0928C127.287 18.8641 126.424 19.2291 125.976 20.005C125.91 20.1182 125.843 20.2308 125.758 20.376Z" fill="white"/>
<path d="M133.302 33.2501L130.015 27.5742H123.511L120.203 33.3087H126.755L129.988 38.9578L133.302 33.2501Z" fill="white"/>
</g>
</g>
</g>
</g>
</g>
<defs>
<filter id="filter0_d_3090_22333" x="-20" y="-26" width="226.818" height="140" filterUnits="userSpaceOnUse" color-interpolation-filters="sRGB">
<feFlood flood-opacity="0" result="BackgroundImageFix"/>
<feColorMatrix in="SourceAlpha" type="matrix" values="0 0 0 0 0 0 0 0 0 0 0 0 0 0 0 0 0 0 127 0" result="hardAlpha"/>
<feOffset dx="20" dy="14"/>
<feGaussianBlur stdDeviation="20"/>
<feComposite in2="hardAlpha" operator="out"/>
<feColorMatrix type="matrix" values="0 0 0 0 0 0 0 0 0 0 0 0 0 0 0 0 0 0 0.08 0"/>
<feBlend mode="normal" in2="BackgroundImageFix" result="effect1_dropShadow_3090_22333"/>
<feBlend mode="normal" in="SourceGraphic" in2="effect1_dropShadow_3090_22333" result="shape"/>
</filter>
<clipPath id="clip0_3090_22333">
<rect width="146.818" height="60" fill="white"/>
</clipPath>
</defs>
</svg>
