<?xml version="1.0" encoding="UTF-8"?> <svg xmlns="http://www.w3.org/2000/svg" fill="none" viewBox="0 0 470 470"><g filter="url(#a)"><path fill="#A2B8D2" d="M231 414.822c101.092 0 183.044-81.951 183.044-183.044 0-101.092-81.952-183.044-183.044-183.044-101.092 0-183.044 81.952-183.044 183.044 0 101.093 81.952 183.044 183.044 183.044Z"></path></g><g filter="url(#b)"><path fill="#fff" d="M231 456c25.982 0 47.045-21.063 47.045-47.045 0-25.982-21.063-47.045-47.045-47.045-25.982 0-47.045 21.063-47.045 47.045C183.955 434.937 205.018 456 231 456Z"></path></g><g filter="url(#c)"><path fill="#fff" d="M231 100.09c25.982 0 47.045-21.063 47.045-47.045C278.045 27.063 256.982 6 231 6c-25.982 0-47.045 21.063-47.045 47.045 0 25.982 21.063 47.045 47.045 47.045Z"></path></g><g filter="url(#d)"><path fill="#fff" d="M356.837 403.882c25.982 0 47.045-21.063 47.045-47.045 0-25.982-21.063-47.045-47.045-47.045-25.982 0-47.045 21.063-47.045 47.045 0 25.982 21.063 47.045 47.045 47.045Z"></path></g><g filter="url(#e)"><path fill="#fff" d="M105.163 152.208c25.982 0 47.045-21.063 47.045-47.045 0-25.982-21.063-47.045-47.045-47.045-25.982 0-47.045 21.063-47.045 47.045 0 25.982 21.063 47.045 47.045 47.045Z"></path></g><g filter="url(#f)"><path fill="#fff" d="M408.955 278.045C434.937 278.045 456 256.982 456 231c0-25.982-21.063-47.045-47.045-47.045-25.982 0-47.045 21.063-47.045 47.045 0 25.982 21.063 47.045 47.045 47.045Z"></path></g><g filter="url(#g)"><path fill="#fff" d="M53.045 278.045c25.982 0 47.045-21.063 47.045-47.045 0-25.982-21.063-47.045-47.045-47.045C27.063 183.955 6 205.018 6 231c0 25.982 21.063 47.045 47.045 47.045Z"></path></g><g filter="url(#h)"><path fill="#fff" d="M356.837 152.208c25.982 0 47.045-21.063 47.045-47.045 0-25.982-21.063-47.045-47.045-47.045-25.982 0-47.045 21.063-47.045 47.045 0 25.982 21.063 47.045 47.045 47.045Z"></path></g><g filter="url(#i)"><path fill="#fff" d="M105.163 403.882c25.982 0 47.045-21.063 47.045-47.045 0-25.982-21.063-47.045-47.045-47.045-25.982 0-47.045 21.063-47.045 47.045 0 25.982 21.063 47.045 47.045 47.045Z"></path></g><g filter="url(#j)"><path fill="#7494BC" d="M231 351.779c66.275 0 120.001-53.726 120.001-120.001S297.275 111.777 231 111.777s-120.001 53.726-120.001 120.001S164.725 351.779 231 351.779Z"></path></g><g filter="url(#k)"><path fill="#039" d="M231 316.328c46.696 0 84.55-37.854 84.55-84.55s-37.854-84.55-84.55-84.55-84.55 37.854-84.55 84.55 37.854 84.55 84.55 84.55Z"></path></g><path fill="#fff" d="M258.716 234.486v-5.431c9.774-1.837 17.15-10.396 17.15-20.683 0-11.625-9.415-21.055-21.04-21.055-10.287 0-18.846 7.392-20.683 17.165h-6.287c-1.836-9.773-10.395-17.165-20.682-17.165-11.625 0-21.056 9.43-21.056 21.055s9.431 21.041 21.056 21.041c10.287 0 18.846-7.377 20.682-17.15h6.287c1.603 8.513 8.295 15.204 16.792 16.776v5.447c-9.773 1.836-17.149 10.396-17.149 20.682 0 11.625 9.415 21.056 21.04 21.056s21.04-9.431 21.04-21.056c0-10.286-7.376-18.846-17.15-20.682Zm-51.542-12.854c-7.314 0-13.275-5.945-13.275-13.26 0-7.314 5.961-13.274 13.275-13.274s13.259 5.96 13.259 13.274c0 7.315-5.945 13.26-13.259 13.26Zm34.393-13.26c0-7.314 5.945-13.274 13.259-13.274s13.259 5.96 13.259 13.274c0 7.315-5.945 13.26-13.259 13.26s-13.259-5.945-13.259-13.26Zm13.259 60.071c-7.314 0-13.259-5.96-13.259-13.275 0-7.314 5.945-13.259 13.259-13.259s13.259 5.945 13.259 13.259c0 7.315-5.945 13.275-13.259 13.275Z"></path><path fill="#03363D" d="M51.162 222.192v27.483H28.394l22.768-27.483ZM51.161 212.325a11.37 11.37 0 0 1-11.376 11.376c-6.287 0-11.376-5.089-11.376-11.376h22.752ZM54.913 249.675a11.37 11.37 0 0 1 11.376-11.376 11.37 11.37 0 0 1 11.376 11.376H54.913ZM54.913 239.808v-27.483H77.68l-22.768 27.483Z"></path><path fill="#CF4037" d="M123.542 89.74h-9.928v4.56c-4.187-4.87-9.774-4.575-9.774-4.575H89.336L73.12 117.473h10.91l3.346-5.867h6.364v5.898h9.867s5.696.124 9.975-4.606v4.575h9.291v-5.836h.965c3.766.296 10.256-3.611 10.24-11.174-.016-6.271-4.809-10.707-10.551-10.707l.015-.015Zm-.622 18.535h-3.626v5.867h-2.303v-5.867h-4.062s-2.195 5.65-9.555 5.836l-5.976.031v-5.898H85.43l-3.501 5.883h-2.74l12.108-20.791h12.045c7.595.046 10.131 6.442 10.474 8.823h3.206v-8.886h6.178c4.684.234 7.408 4.156 7.501 6.801.124 4.186-2.801 7.999-7.75 8.201h-.031Z"></path><path fill="#CF4037" d="M99.732 95.701v3.44h3.097c6.085-.016 6.1 9.088-.156 9.072h-2.926v3.44h2.957c4.731.031 8.435-3.206 8.435-8.264 0-3.144-2.677-7.688-7.874-7.688h-3.533Zm19.671.031v3.455h3.346c2.163.11 2.194 3.222.015 3.206h-3.346v3.486s2.895.016 3.159 0c2.817 0 5.338-1.961 5.338-5.276 0-3.314-2.599-4.87-5.338-4.87h-3.19.016Zm-25.507-.062h3.47v10.225H86.893l2.007-3.517h4.996v-6.723.015Zm34.05 18.722c.312.311.483.731.483 1.167 0 .467-.156.856-.483 1.167a1.536 1.536 0 0 1-1.167.482 1.648 1.648 0 0 1-1.649-1.649c0-.451.155-.841.482-1.167a1.529 1.529 0 0 1 1.152-.483c.451 0 .84.156 1.167.483h.015Zm.187-.187a1.842 1.842 0 0 0-1.354-.56c-.529 0-.98.186-1.354.56-.358.358-.56.84-.56 1.354 0 .529.187.98.56 1.354.374.373.825.56 1.354.56.529 0 .981-.187 1.354-.56.374-.374.56-.825.56-1.354 0-.514-.186-.996-.56-1.354Zm-1.074 1.26a1.259 1.259 0 0 1-.342.047h-.327v-.762h.311c.405 0 .592.077.592.389 0 .155-.063.28-.218.326h-.016Zm-1.058 1.136h.374v-.824h.295c.203 0 .327.031.405.062.14.078.202.249.202.482v.265h.343v-.031s-.032-.078-.032-.109v-.311a.538.538 0 0 0-.482-.53c.373-.046.514-.217.514-.513 0-.265-.109-.436-.327-.529a1.435 1.435 0 0 0-.576-.078h-.732v2.101l.016.015Z"></path><path fill="#012A7A" d="M253.425 420.767c-.42-.062-.84-.109-1.26-.187-3.844-.747-6.739-3.999-7.066-7.906-.389-4.777 3.144-9.01 7.906-9.477 1.743-.171 3.393.156 4.949.934.078.046.156.078.296.14v-.327c.015-.529.295-.794.809-.809h2.786c.544 0 .809.28.809.809v8.388c0 .623.031 1.23.124 1.836.218 1.401.81 1.915 2.226 2.008.093 0 .186.016.28 0 .311-.031.56.062.731.327v3.672c-.202.234-.451.358-.762.421-.265.046-.529.093-.81.14h-.902c-.078-.016-.171-.047-.249-.047-1.494-.14-2.739-.716-3.626-1.976-.031-.032-.047-.063-.078-.094-.062.047-.109.078-.156.109a8.672 8.672 0 0 1-3.937 1.837c-.389.077-.778.108-1.167.171h-.918l.015.031Zm4.809-8.824c-.031-2.521-1.992-4.466-4.451-4.435a4.404 4.404 0 0 0-4.342 4.435 4.382 4.382 0 0 0 4.467 4.342c2.396-.031 4.342-1.992 4.326-4.342ZM242.08 420.767c-.404-.062-.824-.109-1.229-.187-3.751-.716-6.645-3.859-7.05-7.641a9.648 9.648 0 0 1-.046-.934v-13.943c0-.623.202-.841.824-.841h2.693c.575 0 .824.265.824.841v4.155c0 .622.312.949.95.949h3.735c.467 0 .778.265.793.747.016.965.016 1.945 0 2.926 0 .42-.326.685-.778.685h-3.719c-.669 0-.981.311-.981.98v3.533c0 2.256 1.915 4.233 4.156 4.31.295 0 .591-.015.902-.046.42-.031.747.202.794.622l.327 2.879c.046.498-.203.809-.701.872l-.7.093c-.28.016-.545.016-.809.016l.015-.016ZM215.905 408.893v-10.862c0-.654.217-.872.887-.872h2.723c.545 0 .809.265.809.809v9.773c0 .436.171.716.529.841.327.124.654.031.919-.265 1.509-1.634 3.034-3.268 4.544-4.902a.89.89 0 0 1 .7-.311h3.579c.327 0 .592.093.732.42.14.327.078.623-.171.887-1.712 1.899-3.455 3.797-5.152 5.711-.186.203-.357.436-.529.67-.218.326-.233.669 0 .996.234.342.498.669.794.965 2.117 2.194 4.249 4.373 6.381 6.551.264.265.326.545.202.887-.125.312-.374.467-.763.467h-3.89c-.311 0-.56-.109-.794-.342a1040.07 1040.07 0 0 0-5.711-5.976c-.249-.265-.576-.327-.887-.187-.327.14-.483.405-.483.763v4.886c0 .545-.264.809-.809.809h-2.77c-.576 0-.794-.233-.794-.809v-10.909h-.046ZM204.793 420.689c-4.84 0-8.808-3.968-8.808-8.808s3.984-8.793 8.839-8.777c4.84 0 8.793 3.952 8.793 8.792s-3.953 8.793-8.808 8.793h-.016Zm0-4.404c2.412 0 4.404-1.977 4.404-4.373 0-2.397-1.976-4.389-4.388-4.404-2.412 0-4.404 1.976-4.404 4.373 0 2.443 1.945 4.419 4.388 4.419v-.015Z"></path><path fill="#F6A11F" d="M357.74 84.87a22.4 22.4 0 0 1 8.232 1.26c3.968 1.385 7.501 3.938 10.1 7.252a22.102 22.102 0 0 1 2.848 4.731c.14.28.233.592.171.918-.093.53-.545.95-1.074 1.012-.544.078-1.12-.265-1.323-.778-1.478-3.502-4.03-6.552-7.189-8.653a19.92 19.92 0 0 0-6.459-2.801 20.153 20.153 0 0 0-9.041 0c-4.233.965-8.093 3.393-10.832 6.77a19.712 19.712 0 0 0-2.832 4.684c-.156.389-.514.7-.934.762a1.244 1.244 0 0 1-1.12-.358 1.233 1.233 0 0 1-.265-1.307c1.977-4.684 5.665-8.621 10.178-10.971a21.871 21.871 0 0 1 9.524-2.521h.016Z"></path><path fill="#0A6DAE" d="M354.051 99.296c-.015-.249.218-.42.436-.436h.887c.202 0 .451.14.451.374v8.17c1.105-1.229 2.226-2.443 3.331-3.673.217-.218.389-.544.731-.56.467-.016.918 0 1.369 0 .172-.016.374.14.312.342-.078.14-.203.249-.312.358-1.198 1.199-2.412 2.381-3.594 3.595a806.106 806.106 0 0 1 3.423 3.969c.156.186.343.342.467.56.094.156-.062.358-.233.358-.374.015-.763 0-1.136 0-.187 0-.42.031-.592-.078-.186-.109-.311-.296-.435-.467-1.105-1.385-2.195-2.801-3.315-4.186v4.108c0 .156.031.343-.109.467-.218.218-.545.14-.825.156-.233 0-.529.047-.731-.14-.109-.094-.14-.234-.14-.358-.016-4.186-.016-8.373-.016-12.559h.031ZM349.025 103.14c.56-.171 1.182-.218 1.727.031.187.093.42.28.327.514-.093.295-.156.591-.265.887-.077.218-.311.28-.529.249-.467-.078-.918-.234-1.385-.218-.327 0-.622.171-.856.404-.358.358-.544.856-.622 1.339-.078.358-.047.716-.047 1.074v4.513c.016.249-.233.42-.467.42h-.918c-.218 0-.467-.171-.436-.42v-8.357c-.015-.28.296-.421.529-.405.296.016.716-.093.919.218.155.358.217.731.358 1.089.42-.576.964-1.089 1.665-1.323v-.015ZM317.76 103.358c.093-.094.187-.203.327-.187h1.245c.218 0 .358.187.389.389.404 1.665.809 3.33 1.214 4.98.124.514.264 1.027.342 1.541.078.467.093.949.171 1.416.109-.669.187-1.338.374-1.992.529-1.976 1.058-3.968 1.603-5.945a.484.484 0 0 1 .482-.389h1.385c.249 0 .514.14.576.389.404 1.447.794 2.895 1.183 4.342.233.934.56 1.852.684 2.817.031.264.078.529.14.793.156-1.509.545-2.972.856-4.466.265-1.183.529-2.365.794-3.533.031-.233.296-.358.514-.342h1.12c.218 0 .358.249.28.451-.747 2.77-1.509 5.541-2.256 8.311-.047.218-.234.404-.467.404-.576.016-1.152 0-1.743 0-.218 0-.42-.093-.467-.311-.529-1.914-1.027-3.813-1.541-5.727-.186-.669-.264-1.354-.342-2.039-.093.607-.14 1.23-.296 1.821l-1.587 5.883c-.062.311-.42.373-.685.358h-1.618c-.187 0-.343-.156-.374-.327-.794-2.77-1.541-5.54-2.303-8.295-.031-.109-.016-.233-.031-.358l.031.016ZM385.783 103.171h1.183a.6.6 0 0 1 .544.405c.685 1.774 1.354 3.548 2.039 5.338.14.357.233.731.296 1.12.28-1.058.653-2.085.98-3.128.358-1.121.731-2.257 1.089-3.377.047-.187.234-.327.436-.342.311-.032.638 0 .965 0 .187 0 .42-.016.56.14.094.077.078.218.031.311-1.089 3.097-2.163 6.194-3.252 9.306-.187.514-.343 1.058-.638 1.525-.436.701-1.136 1.214-1.914 1.494-.281.094-.545.28-.841.171-.202-.046-.28-.264-.404-.42-.078-.14-.234-.28-.187-.451.015-.171.155-.311.327-.374.326-.108.669-.233.933-.466.638-.545 1.043-1.354 1.199-2.179-.109-.358-.296-.7-.436-1.058a962.117 962.117 0 0 0-3.113-7.221c-.062-.156-.155-.312-.171-.483 0-.202.218-.295.374-.295v-.016ZM337.695 103.015c1.027-.062 2.101.156 2.941.747.747.545 1.261 1.354 1.51 2.257.28 1.058.28 2.194.031 3.252-.233.981-.809 1.915-1.665 2.475-.918.607-2.07.762-3.144.638-.918-.109-1.805-.514-2.443-1.198-.747-.794-1.121-1.868-1.198-2.942-.094-1.182.093-2.443.747-3.454.482-.763 1.26-1.323 2.132-1.588a6.873 6.873 0 0 1 1.12-.187h-.031Zm-.233 1.323a2.107 2.107 0 0 0-1.37.95c-.482.809-.545 1.789-.513 2.707.031.825.171 1.728.7 2.397.404.498 1.058.763 1.681.747.607.016 1.245-.187 1.665-.654.529-.575.7-1.385.762-2.132.031-.747.047-1.509-.14-2.225-.155-.607-.482-1.23-1.027-1.556-.513-.296-1.151-.343-1.743-.234h-.015ZM370.283 99.187c0-.218.202-.358.404-.358.296-.015.607 0 .919 0 .233 0 .498.171.466.42v12.621c.016.218-.186.389-.404.405h-.732a.422.422 0 0 1-.389-.28c-.093-.28-.14-.56-.202-.825-.342.467-.763.856-1.307 1.058-.763.28-1.619.28-2.412.094a2.92 2.92 0 0 1-1.868-1.448c-.607-1.089-.669-2.381-.638-3.594.016-1.043.218-2.133.903-2.973.513-.7 1.354-1.105 2.194-1.214.794-.109 1.65.016 2.303.498.311.218.56.514.778.809-.031-1.742-.015-3.47-.015-5.182v-.03Zm-2.412 5.105c-.561.031-1.105.357-1.354.871-.483.949-.498 2.054-.483 3.081.031.685.109 1.385.436 1.992.218.421.607.747 1.058.841.701.171 1.525.031 2.039-.529.482-.545.638-1.308.716-1.992.046-.81.046-1.634-.14-2.413-.14-.529-.374-1.058-.794-1.416-.405-.342-.965-.482-1.478-.42v-.015ZM378.002 103.187a5.181 5.181 0 0 1 2.49-.047c.762.171 1.478.607 1.929 1.245.498.638.747 1.447.856 2.256.094.623.062 1.245.062 1.868v3.361c0 .14-.077.249-.186.327-.187.109-.42.062-.623.078-.233 0-.544.016-.669-.233-.124-.296-.156-.607-.233-.919-.312.374-.638.779-1.09.996-.7.343-1.509.327-2.256.172a3.558 3.558 0 0 1-2.272-1.494c-.607-.903-.841-2.023-.825-3.097 0-1.059.187-2.132.794-3.035a3.492 3.492 0 0 1 2.038-1.478h-.015Zm.778 1.151a1.75 1.75 0 0 0-.778.343c-.452.358-.685.918-.81 1.462-.171.872-.171 1.759-.077 2.631.093.638.249 1.338.715 1.805.389.404.965.544 1.51.529.576.015 1.198-.187 1.572-.654.467-.56.607-1.323.669-2.038.047-.841.047-1.697-.187-2.506-.155-.498-.42-1.011-.887-1.307-.482-.311-1.136-.343-1.712-.249l-.015-.016ZM394.373 109.847c.28-.046.576-.046.825.078.436.187.747.669.7 1.152.032.575-.451 1.089-1.011 1.182-.623.14-1.307-.311-1.416-.949-.156-.622.28-1.323.902-1.463Zm-.062.249a1.043 1.043 0 0 0-.638 1.183c.124.56.778.949 1.323.747.498-.156.825-.731.669-1.245-.14-.56-.809-.918-1.354-.685Z"></path><path fill="#0A6DAE" d="M394.155 110.33c.343.015.701-.078 1.012.109.233.171.124.576-.156.653.078.203.187.405.296.607h-.374c-.093-.186-.171-.373-.264-.56h-.156v.56h-.342c0-.467-.016-.933 0-1.385l-.016.016Zm.343.218v.404c.109 0 .233 0 .342-.031.109-.047.093-.171.078-.28-.109-.109-.28-.078-.42-.093Z"></path><path fill="#000" d="M204.311 45.513v9.928c0 3.19-1.386 5.416-4.98 5.416-3.393 0-4.903-2.179-4.903-5.104v-1.245h3.082v1.058c0 1.743.498 2.63 1.821 2.63 1.322 0 1.727-.887 1.727-2.677V45.513h3.253Zm12.698 8.014c0 4.482-1.898 7.33-5.742 7.33-3.844 0-5.743-2.848-5.743-7.33v-.949c0-4.482 1.899-7.33 5.743-7.33 3.844 0 5.742 2.848 5.742 7.33v.95Zm-3.299-1.603c0-2.676-.809-4-2.443-4s-2.443 1.324-2.443 4v2.257c0 2.677.809 4 2.443 4s2.443-1.323 2.443-4v-2.257Zm9.555 8.669h-4.948v-15.08h4.933c3.47 0 4.793 1.618 4.793 4.061 0 1.79-1.027 2.942-2.63 3.237 1.774.312 3.035 1.494 3.035 3.61 0 2.63-1.634 4.172-5.167 4.172h-.016Zm-1.898-8.887h1.463c1.649 0 2.085-.762 2.085-1.774 0-1.089-.436-1.867-2.085-1.867h-1.463v3.642Zm0 2.444v3.86h1.743c1.681 0 2.21-.701 2.21-1.915s-.529-1.945-2.226-1.945h-1.727Zm11.283 6.443-4.358-15.08h3.299l2.755 10.177h.093l2.786-10.177h3.035l-4.358 15.08h-3.252Zm12.107-15.08v15.08h-3.237v-15.08h3.237Zm5.245 15.08v-12.42h-3.829v-2.645h10.941v2.646h-3.907v12.419h-3.205Zm17.601 0h-9.042v-15.08h8.995v2.645h-5.836v3.44h4.451v2.614h-4.451v3.704h5.883v2.677Z"></path><path fill="#000" fill-rule="evenodd" d="M84.636 354.658c-.809 0-1.602.28-2.225.809v-.715h-2.039v7.921h2.117v-5.058c.467-.591 1.167-.965 1.914-.98.296 0 .576.031.856.124v-2.039a4.207 4.207 0 0 0-.623-.046M66.18 360.245a3.24 3.24 0 0 0 2.163.778c.575 0 1.011-.28 1.011-.669 0-1.198-3.828-.762-3.828-3.315 0-1.525 1.463-2.474 3.035-2.474.949 0 1.882.28 2.66.809l-.995 1.525a2.788 2.788 0 0 0-1.51-.544c-.591 0-1.074.233-1.074.638 0 1.027 3.829.622 3.829 3.361 0 1.525-1.479 2.443-3.144 2.443-1.136 0-2.257-.389-3.175-1.058l1.028-1.525v.031ZM79.47 358.627c0-2.21-1.54-4.047-3.735-4.047-2.35 0-3.844 1.93-3.844 4.14a3.962 3.962 0 0 0 3.781 4.124h.359a4.279 4.279 0 0 0 3.236-1.416l-1.198-1.214c-.513.56-1.23.887-1.992.918a2.091 2.091 0 0 1-2.132-1.883h5.463a3.99 3.99 0 0 0 .046-.607l.016-.015Zm-5.416-.95c.156-.809.871-1.4 1.696-1.385.794 0 1.463.592 1.557 1.385h-3.253ZM90.285 359.576l2.18-4.84h2.193l-3.626 7.921h-1.478l-3.626-7.921h2.194l2.163 4.84ZM96.433 351.017c.746 0 1.353.638 1.338 1.385a1.368 1.368 0 0 1-1.385 1.338 1.355 1.355 0 0 1 .016-2.708h.03" clip-rule="evenodd"></path><path fill="#000" d="M97.49 354.736h-2.116v7.921h2.117v-7.921Z"></path><path fill="#000" fill-rule="evenodd" d="M106.237 361.039a4.137 4.137 0 0 1-3.579 1.774 4.133 4.133 0 0 1-4.233-4.015 4.133 4.133 0 0 1 4.015-4.233h.218c1.291 0 2.521.576 3.314 1.587l-1.494 1.323a2.291 2.291 0 0 0-1.82-.949 2.122 2.122 0 0 0-2.132 2.116v.063a2.11 2.11 0 0 0 2.023 2.163h.155c.763 0 1.463-.405 1.883-1.043l1.634 1.23.016-.016ZM113.925 361.397a4.283 4.283 0 0 1-3.237 1.416c-2.179.109-4.031-1.588-4.14-3.766v-.358c0-2.21 1.494-4.14 3.844-4.14 2.179 0 3.719 1.852 3.719 4.046 0 .203 0 .405-.046.607h-5.463a2.09 2.09 0 0 0 2.132 1.883 2.787 2.787 0 0 0 1.992-.918l1.199 1.214v.016Zm-1.977-3.72a1.565 1.565 0 0 0-1.556-1.385c-.825 0-1.541.576-1.696 1.385h3.252ZM114.967 362.657v-7.921h2.039v.638a3.422 3.422 0 0 1 2.225-.793c1.059 0 2.055.466 2.739 1.276.607.793.903 1.789.81 2.785v4.031h-2.117v-4.202a1.946 1.946 0 0 0-.467-1.494 1.667 1.667 0 0 0-1.182-.436 2.48 2.48 0 0 0-1.915.981v5.151h-2.116l-.016-.016Z" clip-rule="evenodd"></path><path fill="#62D84E" fill-rule="evenodd" d="M128.226 354.565c-2.552 0-4.637 2.07-4.637 4.622 0 1.276.529 2.506 1.447 3.377a.901.901 0 0 0 1.183.062 3.317 3.317 0 0 1 3.953 0 .921.921 0 0 0 1.198-.062 4.641 4.641 0 0 0 .171-6.552 4.622 4.622 0 0 0-3.315-1.447Zm-.031 6.941a2.242 2.242 0 0 1-2.303-2.179v-.124a2.298 2.298 0 0 1 2.303-2.304 2.299 2.299 0 0 1 2.304 2.304 2.243 2.243 0 0 1-2.179 2.303h-.125Z" clip-rule="evenodd"></path><path fill="#000" fill-rule="evenodd" d="M136.988 362.657h-1.572l-3.143-7.921h2.116l1.728 4.529 1.68-4.529h1.774l1.666 4.529 1.743-4.529h2.116l-3.144 7.921h-1.587l-1.681-4.513-1.696 4.513Z" clip-rule="evenodd"></path><path fill="#000" d="M145.112 361.77h-.171v.343h-.156v-.919h.374c.155 0 .295.125.295.296a.272.272 0 0 1-.187.265l.203.358h-.171l-.203-.343h.016Zm-.171-.14h.218a.156.156 0 0 0 .155-.156c0-.093-.062-.155-.155-.155h-.218v.311Z"></path><path fill="#000" d="M145.096 360.805c.467 0 .856.374.856.856a.843.843 0 0 1-.856.856.853.853 0 0 1-.856-.856c0-.467.389-.856.856-.856Zm0-.14a.993.993 0 0 0-.996.996c0 .561.436.996.996.996a.992.992 0 0 0 .996-.996.984.984 0 0 0-.996-.996Z"></path><path fill="#FA4616" d="M366.906 344.667c-4.871 0-8.808 3.937-8.824 8.808v.031a.328.328 0 0 1-.327.327.319.319 0 0 1-.326-.327c0-4.871-3.938-8.808-8.809-8.823h-.031a.329.329 0 0 1-.327-.327.34.34 0 0 1 .327-.327c4.871 0 8.824-3.953 8.824-8.824 0-.187.156-.327.327-.327a.32.32 0 0 1 .327.327v.031c.015 4.871 3.984 8.809 8.855 8.793a8.769 8.769 0 0 0 5.477-1.93c-1.244-8.108-8.823-13.648-16.931-12.403-8.108 1.245-13.648 8.824-12.403 16.932 1.244 8.108 8.823 13.648 16.931 12.403a14.826 14.826 0 0 0 12.403-12.403 8.73 8.73 0 0 0-5.509-1.93"></path><path fill="#000" d="M323.472 371.761c-1.199 0-2.086-.918-2.086-2.101 0-1.183.872-2.116 2.07-2.116.763 0 1.385.373 1.681.933l1.338-.762c-.513-1.027-1.665-1.696-3.019-1.696-2.07 0-3.641 1.571-3.641 3.641 0 2.07 1.587 3.626 3.657 3.626 1.463 0 2.692-.762 3.221-1.914l-1.416-.638c-.311.638-.98 1.027-1.805 1.027ZM330.755 371.761c-1.152 0-2.039-.918-2.039-2.101 0-1.183.887-2.116 2.039-2.116 1.151 0 2.054.918 2.054 2.116 0 1.199-.903 2.101-2.054 2.101Zm0-5.742c-2.039 0-3.626 1.571-3.626 3.641 0 2.07 1.571 3.626 3.626 3.626 2.054 0 3.626-1.556 3.626-3.626s-1.588-3.641-3.626-3.641ZM335.501 367.544v5.602h1.588v-5.338s.062-.14.14-.14h2.272v-1.525h-2.615c-.762 0-1.385.622-1.385 1.385M344.294 366.003a2.354 2.354 0 0 0-2.116 1.245v-1.105h-1.588v6.987h1.588v-3.797c0-1.105.684-1.821 1.727-1.821 1.043 0 1.681.716 1.681 1.821v3.797h1.603v-3.983c0-1.946-1.121-3.144-2.911-3.144M349.928 368.804c.249-.871.933-1.354 1.867-1.354.934 0 1.65.576 1.774 1.354h-3.641Zm1.96-2.801a3.583 3.583 0 0 0-3.61 3.517v.078c0 2.085 1.618 3.673 3.626 3.673 1.447 0 2.614-.576 3.128-1.526l-1.276-.809c-.327.545-1.043.887-1.836.887-1.09 0-1.837-.622-2.039-1.68h5.291c.047-.281.062-.545.062-.825 0-1.868-1.478-3.331-3.361-3.331M356.37 367.544v5.602h1.588v-5.338s.062-.14.14-.14h2.272v-1.525h-2.614c-.763 0-1.386.622-1.386 1.385M362.455 368.073c0-.452.389-.747.965-.747s1.587.264 2.148.747l.622-1.23c-.622-.575-1.649-.84-2.614-.84-1.603 0-2.724.903-2.724 2.21 0 2.583 3.891 1.696 3.891 2.972 0 .436-.451.778-1.152.778-.793 0-1.821-.358-2.365-.871l-.623 1.198c.685.623 1.899 1.012 3.035 1.012 1.603 0 2.739-.918 2.739-2.179 0-2.583-3.922-1.852-3.922-3.05ZM376.103 371.761c-1.152 0-2.039-.918-2.039-2.101 0-1.183.887-2.116 2.039-2.116 1.152 0 2.054.918 2.054 2.116 0 1.199-.902 2.101-2.054 2.101Zm0-5.742c-2.039 0-3.626 1.571-3.626 3.641 0 2.07 1.572 3.626 3.626 3.626s3.626-1.556 3.626-3.626-1.587-3.641-3.626-3.641ZM384.554 366.003a2.356 2.356 0 0 0-2.117 1.245v-1.105h-1.587v6.987h1.587v-3.797c0-1.105.685-1.821 1.728-1.821 1.042 0 1.696.716 1.696 1.821v3.797h1.603v-3.983c0-1.946-1.121-3.144-2.91-3.144ZM390.203 368.804c.249-.871.934-1.354 1.867-1.354.934 0 1.65.576 1.774 1.354h-3.641Zm5.322.529c0-1.867-1.478-3.33-3.361-3.33-1.961-.031-3.58 1.556-3.611 3.517v.078c0 2.085 1.619 3.673 3.626 3.673 1.448 0 2.615-.576 3.128-1.525l-1.276-.81c-.327.545-1.043.887-1.836.887-1.09 0-1.837-.622-2.039-1.68h5.291c.047-.281.063-.545.063-.825M369.816 371.434v-3.766h1.837v-1.525h-1.837v-1.867h-1.587v1.867h-1.338v1.525h1.338v4.093c0 .763.622 1.385 1.385 1.385h2.319v-1.587h-1.977s-.14-.062-.14-.14"></path><path fill="url(#l)" d="M408.94 204.544v22.488l23.841 5.524-23.841-28.012Z"></path><path fill="url(#m)" d="M408.94 204.544v22.488l-23.795 5.524 23.795-28.012Z"></path><path fill="url(#n)" d="M408.94 227.016v20.807l23.841-15.282-23.841-5.525Z"></path><path fill="url(#o)" d="M408.94 227.016v20.807l-23.795-15.282 23.795-5.525Z"></path><path fill="#50E5FE" d="m383.2 234.781-3.222 3.72 28.993 18.955v-6.069L383.2 234.781Z"></path><path fill="url(#p)" d="m434.727 234.781 3.221 3.72-28.993 18.955v-6.069l25.772-16.606Z"></path><defs><filter id="a" width="386.088" height="386.088" x="44.956" y="45.734" color-interpolation-filters="sRGB" filterUnits="userSpaceOnUse"><feFlood flood-opacity="0" result="BackgroundImageFix"></feFlood><feColorMatrix in="SourceAlpha" result="hardAlpha" values="0 0 0 0 0 0 0 0 0 0 0 0 0 0 0 0 0 0 127 0"></feColorMatrix><feOffset dx="7" dy="7"></feOffset><feGaussianBlur stdDeviation="5"></feGaussianBlur><feColorMatrix values="0 0 0 0 0.0941176 0 0 0 0 0.156863 0 0 0 0 0.321569 0 0 0 0.2 0"></feColorMatrix><feBlend in2="BackgroundImageFix" result="effect1_dropShadow_30_3201"></feBlend><feBlend in="SourceGraphic" in2="effect1_dropShadow_30_3201" result="shape"></feBlend></filter><filter id="b" width="114.09" height="114.09" x="177.955" y="355.91" color-interpolation-filters="sRGB" filterUnits="userSpaceOnUse"><feFlood flood-opacity="0" result="BackgroundImageFix"></feFlood><feColorMatrix in="SourceAlpha" result="hardAlpha" values="0 0 0 0 0 0 0 0 0 0 0 0 0 0 0 0 0 0 127 0"></feColorMatrix><feOffset dx="4" dy="4"></feOffset><feGaussianBlur stdDeviation="5"></feGaussianBlur><feColorMatrix values="0 0 0 0 0.0941176 0 0 0 0 0.156863 0 0 0 0 0.321569 0 0 0 0.2 0"></feColorMatrix><feBlend in2="BackgroundImageFix" result="effect1_dropShadow_30_3201"></feBlend><feBlend in="SourceGraphic" in2="effect1_dropShadow_30_3201" result="shape"></feBlend></filter><filter id="c" width="114.09" height="114.09" x="177.955" y="0" color-interpolation-filters="sRGB" filterUnits="userSpaceOnUse"><feFlood flood-opacity="0" result="BackgroundImageFix"></feFlood><feColorMatrix in="SourceAlpha" result="hardAlpha" values="0 0 0 0 0 0 0 0 0 0 0 0 0 0 0 0 0 0 127 0"></feColorMatrix><feOffset dx="4" dy="4"></feOffset><feGaussianBlur stdDeviation="5"></feGaussianBlur><feColorMatrix values="0 0 0 0 0.0941176 0 0 0 0 0.156863 0 0 0 0 0.321569 0 0 0 0.2 0"></feColorMatrix><feBlend in2="BackgroundImageFix" result="effect1_dropShadow_30_3201"></feBlend><feBlend in="SourceGraphic" in2="effect1_dropShadow_30_3201" result="shape"></feBlend></filter><filter id="d" width="114.09" height="114.09" x="303.792" y="303.792" color-interpolation-filters="sRGB" filterUnits="userSpaceOnUse"><feFlood flood-opacity="0" result="BackgroundImageFix"></feFlood><feColorMatrix in="SourceAlpha" result="hardAlpha" values="0 0 0 0 0 0 0 0 0 0 0 0 0 0 0 0 0 0 127 0"></feColorMatrix><feOffset dx="4" dy="4"></feOffset><feGaussianBlur stdDeviation="5"></feGaussianBlur><feColorMatrix values="0 0 0 0 0.0941176 0 0 0 0 0.156863 0 0 0 0 0.321569 0 0 0 0.2 0"></feColorMatrix><feBlend in2="BackgroundImageFix" result="effect1_dropShadow_30_3201"></feBlend><feBlend in="SourceGraphic" in2="effect1_dropShadow_30_3201" result="shape"></feBlend></filter><filter id="e" width="114.09" height="114.09" x="52.118" y="52.118" color-interpolation-filters="sRGB" filterUnits="userSpaceOnUse"><feFlood flood-opacity="0" result="BackgroundImageFix"></feFlood><feColorMatrix in="SourceAlpha" result="hardAlpha" values="0 0 0 0 0 0 0 0 0 0 0 0 0 0 0 0 0 0 127 0"></feColorMatrix><feOffset dx="4" dy="4"></feOffset><feGaussianBlur stdDeviation="5"></feGaussianBlur><feColorMatrix values="0 0 0 0 0.0941176 0 0 0 0 0.156863 0 0 0 0 0.321569 0 0 0 0.2 0"></feColorMatrix><feBlend in2="BackgroundImageFix" result="effect1_dropShadow_30_3201"></feBlend><feBlend in="SourceGraphic" in2="effect1_dropShadow_30_3201" result="shape"></feBlend></filter><filter id="f" width="114.09" height="114.09" x="355.91" y="177.955" color-interpolation-filters="sRGB" filterUnits="userSpaceOnUse"><feFlood flood-opacity="0" result="BackgroundImageFix"></feFlood><feColorMatrix in="SourceAlpha" result="hardAlpha" values="0 0 0 0 0 0 0 0 0 0 0 0 0 0 0 0 0 0 127 0"></feColorMatrix><feOffset dx="4" dy="4"></feOffset><feGaussianBlur stdDeviation="5"></feGaussianBlur><feColorMatrix values="0 0 0 0 0.0941176 0 0 0 0 0.156863 0 0 0 0 0.321569 0 0 0 0.2 0"></feColorMatrix><feBlend in2="BackgroundImageFix" result="effect1_dropShadow_30_3201"></feBlend><feBlend in="SourceGraphic" in2="effect1_dropShadow_30_3201" result="shape"></feBlend></filter><filter id="g" width="114.09" height="114.09" x="0" y="177.955" color-interpolation-filters="sRGB" filterUnits="userSpaceOnUse"><feFlood flood-opacity="0" result="BackgroundImageFix"></feFlood><feColorMatrix in="SourceAlpha" result="hardAlpha" values="0 0 0 0 0 0 0 0 0 0 0 0 0 0 0 0 0 0 127 0"></feColorMatrix><feOffset dx="4" dy="4"></feOffset><feGaussianBlur stdDeviation="5"></feGaussianBlur><feColorMatrix values="0 0 0 0 0.0941176 0 0 0 0 0.156863 0 0 0 0 0.321569 0 0 0 0.2 0"></feColorMatrix><feBlend in2="BackgroundImageFix" result="effect1_dropShadow_30_3201"></feBlend><feBlend in="SourceGraphic" in2="effect1_dropShadow_30_3201" result="shape"></feBlend></filter><filter id="h" width="114.09" height="114.09" x="303.792" y="52.118" color-interpolation-filters="sRGB" filterUnits="userSpaceOnUse"><feFlood flood-opacity="0" result="BackgroundImageFix"></feFlood><feColorMatrix in="SourceAlpha" result="hardAlpha" values="0 0 0 0 0 0 0 0 0 0 0 0 0 0 0 0 0 0 127 0"></feColorMatrix><feOffset dx="4" dy="4"></feOffset><feGaussianBlur stdDeviation="5"></feGaussianBlur><feColorMatrix values="0 0 0 0 0.0941176 0 0 0 0 0.156863 0 0 0 0 0.321569 0 0 0 0.2 0"></feColorMatrix><feBlend in2="BackgroundImageFix" result="effect1_dropShadow_30_3201"></feBlend><feBlend in="SourceGraphic" in2="effect1_dropShadow_30_3201" result="shape"></feBlend></filter><filter id="i" width="114.09" height="114.09" x="52.118" y="303.792" color-interpolation-filters="sRGB" filterUnits="userSpaceOnUse"><feFlood flood-opacity="0" result="BackgroundImageFix"></feFlood><feColorMatrix in="SourceAlpha" result="hardAlpha" values="0 0 0 0 0 0 0 0 0 0 0 0 0 0 0 0 0 0 127 0"></feColorMatrix><feOffset dx="4" dy="4"></feOffset><feGaussianBlur stdDeviation="5"></feGaussianBlur><feColorMatrix values="0 0 0 0 0.0941176 0 0 0 0 0.156863 0 0 0 0 0.321569 0 0 0 0.2 0"></feColorMatrix><feBlend in2="BackgroundImageFix" result="effect1_dropShadow_30_3201"></feBlend><feBlend in="SourceGraphic" in2="effect1_dropShadow_30_3201" result="shape"></feBlend></filter><filter id="j" width="260.002" height="260.002" x="107.999" y="108.777" color-interpolation-filters="sRGB" filterUnits="userSpaceOnUse"><feFlood flood-opacity="0" result="BackgroundImageFix"></feFlood><feColorMatrix in="SourceAlpha" result="hardAlpha" values="0 0 0 0 0 0 0 0 0 0 0 0 0 0 0 0 0 0 127 0"></feColorMatrix><feOffset dx="7" dy="7"></feOffset><feGaussianBlur stdDeviation="5"></feGaussianBlur><feColorMatrix values="0 0 0 0 0.0941176 0 0 0 0 0.156863 0 0 0 0 0.321569 0 0 0 0.2 0"></feColorMatrix><feBlend in2="BackgroundImageFix" result="effect1_dropShadow_30_3201"></feBlend><feBlend in="SourceGraphic" in2="effect1_dropShadow_30_3201" result="shape"></feBlend></filter><filter id="k" width="189.1" height="189.1" x="143.45" y="144.228" color-interpolation-filters="sRGB" filterUnits="userSpaceOnUse"><feFlood flood-opacity="0" result="BackgroundImageFix"></feFlood><feColorMatrix in="SourceAlpha" result="hardAlpha" values="0 0 0 0 0 0 0 0 0 0 0 0 0 0 0 0 0 0 127 0"></feColorMatrix><feOffset dx="7" dy="7"></feOffset><feGaussianBlur stdDeviation="5"></feGaussianBlur><feColorMatrix values="0 0 0 0 0.0941176 0 0 0 0 0.156863 0 0 0 0 0.321569 0 0 0 0.2 0"></feColorMatrix><feBlend in2="BackgroundImageFix" result="effect1_dropShadow_30_3201"></feBlend><feBlend in="SourceGraphic" in2="effect1_dropShadow_30_3201" result="shape"></feBlend></filter><linearGradient id="l" x1="403.493" x2="427.132" y1="209.104" y2="237.287" gradientUnits="userSpaceOnUse"><stop stop-color="#4DA8EB"></stop><stop offset="1" stop-color="#2B92DE"></stop></linearGradient><linearGradient id="m" x1="414.386" x2="390.763" y1="209.119" y2="237.272" gradientUnits="userSpaceOnUse"><stop stop-color="#50E5FE"></stop><stop offset="1" stop-color="#50E5FE"></stop></linearGradient><linearGradient id="n" x1="409.438" x2="422.012" y1="226.596" y2="241.582" gradientUnits="userSpaceOnUse"><stop stop-color="#53B0DF"></stop><stop offset="1" stop-color="#53B0DF"></stop></linearGradient><linearGradient id="o" x1="408.442" x2="395.883" y1="226.611" y2="241.567" gradientUnits="userSpaceOnUse"><stop stop-color="#9BEAFE"></stop><stop offset="1" stop-color="#9BEAFE"></stop></linearGradient><linearGradient id="p" x1="408.955" x2="437.948" y1="246.126" y2="246.126" gradientUnits="userSpaceOnUse"><stop stop-color="#47A6EA"></stop><stop offset="1" stop-color="#2F96E1"></stop></linearGradient></defs></svg> 